<?xml version="1.0" encoding="UTF-8" standalone="no"?>
<!DOCTYPE svg PUBLIC "-//W3C//DTD SVG 1.1//EN" "http://www.w3.org/Graphics/SVG/1.1/DTD/svg11.dtd">
<svg width="100%" height="100%" viewBox="0 0 79 79" version="1.1" xmlns="http://www.w3.org/2000/svg" xmlns:xlink="http://www.w3.org/1999/xlink" xml:space="preserve" xmlns:serif="http://www.serif.com/" style="fill-rule:evenodd;clip-rule:evenodd;stroke-linejoin:round;stroke-miterlimit:2;">
    <g transform="matrix(1,0,0,1,-1410.42,-621.342)">
        <g transform="matrix(1,0,0,1,1403.58,696)">
            <g transform="matrix(1,0,0,1,-1403.58,-696)">
                <path d="M1449.82,700.15C1471.6,700.15 1489.27,682.475 1489.27,660.746C1489.27,639.018 1471.6,621.342 1449.82,621.342C1428.09,621.342 1410.42,639.018 1410.42,660.746C1410.42,682.475 1428.09,700.15 1449.82,700.15ZM1445.52,679.545C1444.01,679.545 1442.79,678.959 1441.62,677.396L1432.54,666.02C1431.85,665.189 1431.51,664.213 1431.51,663.236C1431.51,661.234 1432.98,659.623 1435.03,659.623C1436.25,659.623 1437.22,660.014 1438.3,661.478L1445.33,670.854L1460.9,645.658C1461.68,644.291 1462.81,643.607 1463.98,643.607C1465.93,643.607 1467.69,644.877 1467.69,646.977C1467.69,647.953 1467.15,648.978 1466.57,649.857L1449.18,677.396C1448.26,678.861 1446.99,679.545 1445.52,679.545Z" style="fill:white;fill-rule:nonzero;"/>
            </g>
        </g>
    </g>
</svg>
