<?xml version="1.0" encoding="UTF-8" standalone="no"?>
<!DOCTYPE svg PUBLIC "-//W3C//DTD SVG 1.1//EN" "http://www.w3.org/Graphics/SVG/1.1/DTD/svg11.dtd">
<svg width="100%" height="100%" viewBox="0 0 79 79" version="1.1" xmlns="http://www.w3.org/2000/svg" xmlns:xlink="http://www.w3.org/1999/xlink" xml:space="preserve" xmlns:serif="http://www.serif.com/" style="fill-rule:evenodd;clip-rule:evenodd;stroke-linejoin:round;stroke-miterlimit:2;">
    <g transform="matrix(1,0,0,1,-1410.42,-621.342)">
        <g transform="matrix(1,0,0,1,1403.58,696)">
            <path d="M46.24,4.15C68.018,4.15 85.693,-13.477 85.693,-35.254C85.693,-57.031 68.018,-74.658 46.24,-74.658C24.512,-74.658 6.836,-57.031 6.836,-35.254C6.836,-13.477 24.512,4.15 46.24,4.15ZM46.24,-3.271C28.565,-3.271 14.307,-17.578 14.307,-35.254C14.307,-52.93 28.565,-67.236 46.24,-67.236C63.916,-67.236 78.223,-52.93 78.223,-35.254C78.223,-17.578 63.916,-3.271 46.24,-3.271Z" style="fill:white;fill-rule:nonzero;"/>
        </g>
    </g>
</svg>
